<?xml version="1.0" encoding="UTF-8"?><svg id="Layer_1" xmlns="http://www.w3.org/2000/svg" viewBox="0 0 969.14 686.59"><defs><style>.cls-1{fill:#fff;}.cls-2{fill:#ffa800;}</style></defs><rect class="cls-2" width="969.14" height="686.59" rx="92.07" ry="92.07"/><path class="cls-1" d="M484.57,159.43c-2.28,1.8-4.52,3.65-6.71,5.55-37.35,32.5-61,80.34-61,133.74s23.64,101.24,61,133.74c2.19,1.91,4.42,3.75,6.71,5.55,2.28-1.8,4.52-3.65,6.71-5.55,37.35-32.5,61-80.34,61-133.74s-23.64-101.24-61-133.74c-2.19-1.91-4.42-3.75-6.71-5.55m109.55-37.96c-36.29,0-70.03,10.91-98.13,29.62,1.44,1.18,2.89,2.34,4.28,3.55,41.76,36.33,65.71,88.85,65.71,144.08s-23.95,107.75-65.71,144.08c-1.39,1.21-2.85,2.37-4.29,3.55,28.1,18.71,61.84,29.62,98.13,29.62,97.9,0,177.26-79.36,177.26-177.26s-79.36-177.26-177.26-177.26h0Zm-125.26,321.34c1.38,1.2,2.85,2.37,4.28,3.55-28.1,18.71-61.84,29.63-98.13,29.63-97.9,0-177.26-79.36-177.26-177.26s79.36-177.26,177.26-177.26c36.29,0,70.03,10.91,98.13,29.62-1.44,1.18-2.89,2.34-4.28,3.55-41.76,36.33-65.71,88.85-65.71,144.09s23.95,107.76,65.71,144.08h0Zm296.96-34.24v-6.88h-1.79l-2.07,4.73-2.07-4.73h-1.8v6.88h1.27v-5.19l1.94,4.47h1.31l1.94-4.49v5.2h1.27Zm-11.37,0v-5.71h2.3v-1.16h-5.86v1.16h2.3v5.71h1.26Zm5.54,153.03v1.16h1.06c.25,0,.44-.05,.59-.14,.15-.09,.22-.24,.22-.44s-.07-.33-.22-.43c-.14-.09-.34-.14-.59-.14h-1.06Zm1.08-.81c.56,0,.98,.12,1.29,.37,.3,.25,.45,.59,.45,1.01,0,.36-.12,.66-.36,.89-.24,.23-.58,.37-1.02,.43l1.42,1.64h-1.11l-1.32-1.63h-.42v1.63h-.93v-4.34h2.01Zm-.28,5.83c.5,0,.97-.1,1.41-.29,.44-.19,.82-.45,1.15-.78,.33-.33,.59-.71,.77-1.16,.19-.44,.28-.92,.28-1.42s-.09-.97-.28-1.42c-.19-.44-.44-.83-.77-1.16-.33-.33-.71-.59-1.15-.77-.43-.19-.91-.28-1.41-.28s-.99,.09-1.44,.28c-.45,.19-.84,.45-1.17,.77-.32,.33-.59,.72-.77,1.16-.19,.44-.28,.92-.28,1.42s.09,.98,.28,1.42c.19,.44,.45,.83,.77,1.16,.33,.33,.72,.59,1.17,.78,.44,.19,.93,.29,1.44,.29h0Zm0-8.33c.65,0,1.28,.12,1.85,.37,.58,.24,1.08,.58,1.51,1,.43,.42,.77,.92,1.02,1.49,.25,.57,.37,1.18,.37,1.82s-.12,1.25-.37,1.81c-.25,.57-.59,1.06-1.02,1.49-.43,.42-.94,.76-1.51,1.01-.58,.25-1.2,.37-1.85,.37s-1.3-.12-1.89-.37c-.59-.25-1.09-.59-1.52-1.01-.43-.42-.76-.92-1.01-1.49-.25-.57-.37-1.17-.37-1.81s.12-1.25,.37-1.82c.25-.57,.59-1.06,1.01-1.49,.43-.43,.94-.76,1.52-1,.59-.25,1.21-.37,1.89-.37h0Zm-439.09-16.71c0-8.27,5.42-15.06,14.28-15.06s14.18,6.5,14.18,15.06-5.71,15.07-14.18,15.07-14.28-6.79-14.28-15.07h0Zm38.11,0v-23.53h-10.24v5.71c-3.25-4.23-8.17-6.89-14.87-6.89-13.19,0-23.53,10.34-23.53,24.71s10.34,24.72,23.53,24.72c6.7,0,11.62-2.66,14.87-6.89v5.71h10.24v-23.54h0Zm345.8,0c0-8.27,5.42-15.06,14.28-15.06s14.18,6.5,14.18,15.06-5.71,15.07-14.18,15.07-14.28-6.79-14.28-15.07h0Zm38.11,0v-42.44h-10.24v24.62c-3.25-4.23-8.17-6.89-14.87-6.89-13.2,0-23.54,10.34-23.54,24.71s10.34,24.72,23.54,24.72c6.69,0,11.62-2.66,14.87-6.89v5.71h10.24v-23.54h0Zm-256.89-15.56c6.6,0,10.83,4.14,11.91,11.42h-24.42c1.08-6.79,5.22-11.42,12.5-11.42h0Zm.2-9.16c-13.79,0-23.43,10.04-23.43,24.71s10.04,24.72,24.12,24.72c7.09,0,13.59-1.78,19.3-6.6l-5.02-7.58c-3.94,3.15-8.96,4.92-13.69,4.92-6.6,0-12.6-3.05-14.08-11.52h34.95c.1-1.28,.2-2.56,.2-3.94-.1-14.67-9.16-24.71-22.35-24.71h0Zm123.57,24.71c0-8.27,5.41-15.06,14.28-15.06s14.18,6.5,14.18,15.06-5.71,15.07-14.18,15.07-14.28-6.79-14.28-15.07h0Zm38.11,0v-23.53h-10.24v5.71c-3.25-4.23-8.17-6.89-14.87-6.89-13.19,0-23.53,10.34-23.53,24.71s10.34,24.72,23.53,24.72c6.7,0,11.62-2.66,14.87-6.89v5.71h10.24v-23.54h0Zm-95.91,0c0,14.28,9.95,24.72,25.11,24.72,7.09,0,11.81-1.58,16.94-5.61l-4.92-8.27c-3.84,2.76-7.88,4.23-12.31,4.23-8.17-.1-14.18-6.01-14.18-15.07s6.01-14.97,14.18-15.06c4.43,0,8.47,1.48,12.31,4.23l4.92-8.27c-5.12-4.04-9.85-5.61-16.94-5.61-15.16,0-25.11,10.44-25.11,24.71h0Zm131.94-24.71c-5.91,0-9.75,2.76-12.41,6.89v-5.71h-10.14v47.07h10.24v-26.39c0-7.78,3.35-12.11,10.04-12.11,2.07,0,4.23,.3,6.4,1.18l3.15-9.65c-2.27-.89-5.22-1.28-7.29-1.28h0Zm-274.32,4.92c-4.92-3.25-11.72-4.92-19.2-4.92-11.91,0-19.59,5.71-19.59,15.06,0,7.68,5.71,12.41,16.25,13.88l4.82,.69c5.61,.79,8.27,2.27,8.27,4.92,0,3.64-3.74,5.71-10.73,5.71s-12.21-2.27-15.66-4.92l-4.82,7.98c5.61,4.13,12.7,6.11,20.38,6.11,13.59,0,21.46-6.4,21.46-15.36,0-8.27-6.2-12.6-16.44-14.08l-4.82-.69c-4.43-.59-7.98-1.48-7.98-4.63,0-3.45,3.35-5.51,8.96-5.51,6.01,0,11.82,2.27,14.67,4.04l4.43-8.27h0Zm132.04-4.92c-5.91,0-9.75,2.76-12.41,6.89v-5.71h-10.14v47.07h10.24v-26.39c0-7.78,3.35-12.11,10.04-12.11,2.07,0,4.23,.3,6.4,1.18l3.15-9.65c-2.26-.89-5.22-1.28-7.29-1.28h0Zm-87.34,1.18h-16.74v-14.28h-10.34v14.28h-9.55v9.35h9.55v21.47c0,10.93,4.23,17.43,16.34,17.43,4.43,0,9.55-1.38,12.8-3.64l-2.95-8.76c-3.05,1.77-6.4,2.66-9.06,2.66-5.12,0-6.79-3.15-6.79-7.88v-21.27h16.74v-9.35h0Zm-153.01,47.07v-29.54c0-11.13-7.09-18.61-18.51-18.71-6.01-.1-12.21,1.77-16.54,8.37-3.25-5.22-8.37-8.37-15.56-8.37-5.02,0-9.94,1.48-13.78,6.99v-5.81h-10.24v47.07h10.34v-26.1c0-8.17,4.53-12.5,11.52-12.5s10.24,4.43,10.24,12.41v26.19h10.34v-26.1c0-8.17,4.73-12.5,11.52-12.5s10.34,4.43,10.34,12.41v26.19h10.34Z"/></svg>