<?xml version="1.0" encoding="UTF-8"?><svg id="Layer_2" xmlns="http://www.w3.org/2000/svg" viewBox="0 0 974.14 691.59"><defs><style>.cls-1{fill:#41a53d;}.cls-2{fill:none;stroke:#41a53d;stroke-miterlimit:10;stroke-width:5px;}</style></defs><rect class="cls-2" x="2.5" y="2.5" width="969.14" height="686.59" rx="92.07" ry="92.07"/><path id="Visa-Logo" class="cls-1" d="M377.14,203.47l-119.62,285.4h-78.04l-58.86-227.76c-3.57-14.03-6.68-19.17-17.55-25.08-17.75-9.63-47.05-18.66-72.83-24.26l1.75-8.29h125.62c16.01,0,30.41,10.66,34.04,29.1l31.09,165.14,76.83-194.25h77.57Zm305.78,192.22c.31-75.32-104.16-79.47-103.44-113.12,.22-10.24,9.97-21.13,31.32-23.91,10.58-1.38,39.73-2.44,72.78,12.77l12.97-60.52c-17.76-6.45-40.62-12.65-69.06-12.65-72.97,0-124.33,38.79-124.76,94.34-.47,41.09,36.66,64.01,64.63,77.67,28.78,13.98,38.43,22.97,38.32,35.47-.2,19.14-22.95,27.6-44.21,27.93-37.11,.57-58.64-10.04-75.81-18.02l-13.38,62.52c17.25,7.91,49.09,14.82,82.1,15.17,77.56,0,128.3-38.31,128.54-97.64m192.7,93.18h68.28l-59.6-285.4h-63.02c-14.17,0-26.12,8.25-31.42,20.94l-110.79,264.46h77.52l15.39-42.63h94.72l8.91,42.63Zm-82.38-101.12l38.86-107.16,22.37,107.16h-61.22ZM482.63,203.47l-61.05,285.4h-73.83l61.07-285.4h73.8Z"/></svg>